# xmcd CD database file
#
# Track frame offsets:
#   150
#   20357
#   58660
#   74882
#   92730
#   101917
#   118405
#   139240
#   147805
#   166675
#   176350
#   192525
#   203487
#   228395
#   250697
#   262702
#   282590
#   291630
#   308385
#
# Disc length: 4487 seconds
#
# Revision: 6
# Processed by: cddbd v1.5.2PL0 Copyright (c) Steve Scherf et al.
# Submitted via: CDex 1.51
#
DISCID=1e118513
DTITLE=Paul McCartney / Standing Stone
DYEAR=1997
DGENRE=Classical
TTITLE0=Movement I / Fire / Rain (Allegro Energico)
TTITLE1=Movement I / Cell Growth (Semplice)
TTITLE2=Movement I / 'Human' Theme (Maestoso)
TTITLE3=Movement II / Meditation (Comtemplativo)
TTITLE4=Movement II / Crystal Ship (Con Moto Scherzando)
TTITLE5=Movement II / Sea Voyage (Pulsating, With Cool Jazz Feel)
TTITLE6=Movement II / Lost At Sea (Sognando)
TTITLE7=Movement II / Release (Allegro Con Spirito)
TTITLE8=Movement III / Safe Haven / Standing Stone (Pastorale Con Moto)
TTITLE9=Movement III / Peaceful Moment (Andante Tranquillo)
TTITLE10=Movement III / Messenger (Energico)
TTITLE11=Movement III / Lament (Lamentoso)
TTITLE12=Movement III / Trance (Misterioso)
TTITLE13=Movement III / Eclipse (Eroico)
TTITLE14=Movement IV / Glory Tales (Trionfale)
TTITLE15=Movement IV / Fugal Celebration (L'istesso Tempo. Fresco)
TTITLE16=Movement IV / Rustic Dance (Rustico)
TTITLE17=Movement IV / Love Duet (Andante Intimo)
TTITLE18=Movement IV / Celebration (Andante)
EXTD=Paul McCartney's Standing Stone:\nMovement I - After heavy light years\nMovement II - He awoke startled\nMovement III - Sutble colours mergedsoft contours\nMovement IV - Strings pluck, horns blow, drums beat\n\nLondon Symphony Orchestra and London S
EXTD=ymphony Chorus\nConducted by: Lawrence Foster\nRecorded at No.1 Studio, Abbey Road, London 1997\n\nEMI Classics 7243 5 56484 2 6\n(p) & (c) 1997 MPL Communications Ltd YEAR: 1997
EXTT0=
EXTT1=
EXTT2=
EXTT3=
EXTT4=
EXTT5=
EXTT6=
EXTT7=
EXTT8=
EXTT9=
EXTT10=
EXTT11=
EXTT12=
EXTT13=
EXTT14=
EXTT15=
EXTT16=
EXTT17=
EXTT18=
PLAYORDER=
.
